<svg xmlns="http://www.w3.org/2000/svg" version="1.1" xmlns:xlink="http://www.w3.org/1999/xlink" xmlns:svgjs="http://svgjs.dev/svgjs" width="2000" height="1500" viewBox="0 0 2000 1500"><rect width="2000" height="1500" fill="#fffbeb"></rect><g transform="matrix(0.75,0,0,0.75,250,281.25)"><svg viewBox="0 0 512 320" data-background-color="#fffbeb" preserveAspectRatio="xMidYMid meet" height="1250" width="2000" xmlns="http://www.w3.org/2000/svg" xmlns:xlink="http://www.w3.org/1999/xlink"><g id="tight-bounds" transform="matrix(1,0,0,1,0,0)"><svg viewBox="0 0 512 320" height="320" width="512"><g><svg></svg></g><g><svg viewBox="0 0 512 320" height="320" width="512"><g><path d="M96 160c0-88.366 71.634-160 160-160 88.366 0 160 71.634 160 160 0 88.366-71.634 160-160 160-88.366 0-160-71.634-160-160zM256 308.977c82.278 0 148.977-66.699 148.977-148.977 0-82.278-66.699-148.977-148.977-148.977-82.278 0-148.977 66.699-148.977 148.977 0 82.278 66.699 148.977 148.977 148.977z" fill="#000000" fill-rule="nonzero" stroke="none" stroke-width="1" stroke-linecap="butt" stroke-linejoin="miter" stroke-miterlimit="10" stroke-dasharray="" stroke-dashoffset="0" font-family="none" font-weight="none" font-size="none" text-anchor="none" style="mix-blend-mode: normal" data-fill-palette-color="tertiary"></path></g><g transform="matrix(1,0,0,1,162.59920233777342,80)"><svg viewBox="0 0 186.80159532445313 160" height="160" width="186.80159532445313"><g><svg viewBox="0 0 186.80159532445313 160" height="160" width="186.80159532445313"><g><svg viewBox="0 0 256 219.2700759801175" height="160" width="186.80159532445313"><g transform="matrix(1,0,0,1,0,135.51770363488478)"><svg viewBox="0 0 256 83.75237234523271" height="83.75237234523271" width="256"><g id="textblocktransform"><svg viewBox="0 0 256 83.75237234523271" height="83.75237234523271" width="256" id="textblock"><g><svg viewBox="0 0 256 83.75237234523271" height="83.75237234523271" width="256"><g transform="matrix(1,0,0,1,0,0)"><svg width="256" viewBox="0 -35.7 110.64 36.2" height="83.75237234523271" data-palette-color="#232323"><path d="M25.25-35.7L30-35.7 17.25 0 12.75 0 0-35.7 4.7-35.7 12.75-12.8Q13.3-11.35 13.7-10 14.1-8.65 14.43-7.43 14.75-6.2 15-5L15-5Q15.25-6.2 15.58-7.45 15.9-8.7 16.32-10.05 16.75-11.4 17.25-12.9L17.25-12.9 25.25-35.7ZM44.4-27.25L44.4-27.25Q49.3-27.25 51.65-25.1 54-22.95 54-18.25L54-18.25 54 0 50.8 0 49.95-3.8 49.75-3.8Q48.6-2.35 47.37-1.38 46.15-0.4 44.57 0.05 43 0.5 40.75 0.5L40.75 0.5Q38.35 0.5 36.42-0.35 34.5-1.2 33.4-2.98 32.3-4.75 32.3-7.45L32.3-7.45Q32.3-11.45 35.45-13.63 38.6-15.8 45.15-16L45.15-16 49.7-16.15 49.7-17.75Q49.7-21.1 48.25-22.4 46.8-23.7 44.15-23.7L44.15-23.7Q42.05-23.7 40.15-23.08 38.25-22.45 36.6-21.65L36.6-21.65 35.25-24.95Q37-25.9 39.4-26.58 41.8-27.25 44.4-27.25ZM49.65-13.1L45.7-12.95Q40.7-12.75 38.77-11.35 36.85-9.95 36.85-7.4L36.85-7.4Q36.85-5.15 38.22-4.1 39.6-3.05 41.75-3.05L41.75-3.05Q45.15-3.05 47.4-4.93 49.65-6.8 49.65-10.7L49.65-10.7 49.65-13.1ZM75.2-27.3L75.2-27.3Q80-27.3 82.45-24.98 84.9-22.65 84.9-17.45L84.9-17.45 84.9 0 80.55 0 80.55-17.15Q80.55-20.4 79.09-22 77.65-23.6 74.55-23.6L74.55-23.6Q70.09-23.6 68.4-21.1 66.7-18.6 66.7-13.9L66.7-13.9 66.7 0 62.3 0 62.3-26.8 65.84-26.8 66.5-23.15 66.75-23.15Q67.65-24.55 68.97-25.48 70.3-26.4 71.9-26.85 73.5-27.3 75.2-27.3ZM110.64-7.4L110.64-7.4Q110.64-4.8 109.34-3.05 108.04-1.3 105.64-0.4 103.24 0.5 99.94 0.5L99.94 0.5Q97.14 0.5 95.12 0.05 93.09-0.4 91.54-1.2L91.54-1.2 91.54-5.2Q93.14-4.4 95.42-3.73 97.69-3.05 100.04-3.05L100.04-3.05Q103.39-3.05 104.89-4.13 106.39-5.2 106.39-7L106.39-7Q106.39-8 105.84-8.8 105.29-9.6 103.87-10.4 102.44-11.2 99.79-12.2L99.79-12.2Q97.19-13.2 95.34-14.2 93.49-15.2 92.49-16.6 91.49-18 91.49-20.2L91.49-20.2Q91.49-23.6 94.27-25.45 97.04-27.3 101.54-27.3L101.54-27.3Q103.99-27.3 106.12-26.83 108.24-26.35 110.09-25.5L110.09-25.5 108.59-22Q106.89-22.7 105.04-23.2 103.19-23.7 101.24-23.7L101.24-23.7Q98.54-23.7 97.12-22.83 95.69-21.95 95.69-20.45L95.69-20.45Q95.69-19.35 96.34-18.57 96.99-17.8 98.52-17.07 100.04-16.35 102.59-15.35L102.59-15.35Q105.14-14.4 106.94-13.4 108.74-12.4 109.69-10.98 110.64-9.55 110.64-7.4Z" opacity="1" transform="matrix(1,0,0,1,0,0)" fill="#232323" class="wordmark-text-0" data-fill-palette-color="primary" id="text-0"></path></svg></g></svg></g></svg></g></svg></g><g transform="matrix(1,0,0,1,62.77607564065117,0)"><svg viewBox="0 0 130.44784871869766 115.74577858111162" height="115.74577858111162" width="130.44784871869766"><g><svg xmlns="http://www.w3.org/2000/svg" xmlns:xlink="http://www.w3.org/1999/xlink" version="1.1" x="0" y="0" viewBox="4.4 8.1 91.6 81.27626037661247" enable-background="new 0 0 100 100" xml:space="preserve" height="115.74577858111162" width="130.44784871869766" class="icon-icon-0" data-fill-palette-color="accent" id="icon-0"><g fill="#000000" data-fill-palette-color="accent"><path d="M85 32L80.9 16H82.2C78.6 11 65.9 8.1 50.7 8.1 35.6 8.1 22.9 11 19.3 16H20.6L16.5 32H19.9L24 16H50V32H52V16H77.5L81.6 32z" fill="#000000" data-fill-palette-color="accent"></path><path d="M54 62.5C52.3 64.7 50.7 66.7 50.2 67.2 49.6 66.7 47.8 64.5 45.9 62.1 38.4 52.9 24.7 34.8 15.6 34.2V35.1C24.3 35.7 38.4 54.1 45.2 62.6 48.9 67.1 49.6 68 50.1 68 50.5 68 51 67.5 54.5 63 61.6 53.9 76.1 35.2 85.3 34.5V33.7C75.9 34.4 61.1 53.3 54 62.5" fill="#000000" data-fill-palette-color="accent"></path><g fill="#000000" data-fill-palette-color="accent"><path d="M75.8 52.1C72.9 52.1 70.6 54.4 70.6 57.3S72.9 62.5 75.8 62.5 81 60.2 81 57.3C81 54.5 78.7 52.1 75.8 52.1" fill="#000000" data-fill-palette-color="accent"></path><path d="M75.8 52.1C78.7 52.1 81 54.4 81 57.3S78.7 62.5 75.8 62.5 70.6 60.2 70.6 57.3" fill="#000000" data-fill-palette-color="accent"></path></g><g fill="#000000" data-fill-palette-color="accent"><path d="M25.4 52.1C22.5 52.1 20.2 54.4 20.2 57.3S22.5 62.5 25.4 62.5 30.6 60.2 30.6 57.3C30.5 54.5 28.2 52.1 25.4 52.1" fill="#000000" data-fill-palette-color="accent"></path><path d="M25.4 52.1C28.3 52.1 30.6 54.4 30.6 57.3S28.3 62.5 25.4 62.5 20.2 60.2 20.2 57.3" fill="#000000" data-fill-palette-color="accent"></path></g><g fill="#000000" data-fill-palette-color="accent"><path d="M85.4 33H15.7V33.8C24.9 34.4 38.8 52.6 46.3 61.9 48 63.9 49.5 65.9 50.3 66.6 51 65.9 52.3 64.1 53.8 62.3 61 53.1 75.8 34 85.5 33.3z" fill="#000000" data-fill-palette-color="accent"></path></g><path d="M14 33V30.8L11.1 29.1C11.6 28.5 11.8 27.7 11.8 26.9 11.8 24.9 10.1 23.2 8.1 23.2S4.4 24.8 4.4 26.9 6 30.6 8.1 30.6C9 30.6 9.8 30.3 10.4 29.8L12.9 31.3V38H14.9V33z" fill="#000000" data-fill-palette-color="accent"></path><path d="M87 33V30.8L89.6 29.1C89.1 28.5 88.8 27.7 88.8 26.9 88.8 24.9 90.4 23.2 92.4 23.2S96 24.8 96 26.9 94.3 30.6 92.3 30.6C91.4 30.6 90.9 30.3 90.2 29.8L88 31.2V38H86V33z" fill="#000000" data-fill-palette-color="accent"></path><g fill="#000000" data-fill-palette-color="accent"><path fill="none" d="M75.8 63.2C79.1 63.2 81.8 60.5 81.8 57.2S79.1 51.2 75.8 51.2 69.8 53.9 69.8 57.2 72.5 63.2 75.8 63.2"></path><path fill="none" d="M25.4 63.2C28.7 63.2 31.4 60.5 31.4 57.2S28.7 51.2 25.4 51.2 19.4 53.9 19.4 57.2 22 63.2 25.4 63.2"></path></g><path d="M21.6 80C21.6 81.2 21.6 86.3 23.4 87.9 25.6 90 29.9 89.5 30 88.6 30.2 86.3 30.3 81.6 30.3 81.6 26.4 81.6 21.6 80 21.6 80" fill="#000000" data-fill-palette-color="accent"></path><path d="M80.8 80C80.8 81.2 80.8 86.3 79 87.9 76.8 90 72.5 89.5 72.4 88.6 72.2 86.3 72.1 81.6 72.1 81.6 76 81.6 80.8 80 80.8 80" fill="#000000" data-fill-palette-color="accent"></path></g><g fill="#000000" data-fill-palette-color="accent"><path fill="none" d="M81.6 70C79.8 70.1 77 70.2 73 70.3V67.7C73 66.4 71.8 65.4 70.5 65.4S68 66.4 68 67.7V70.3C58 70.4 44 70.4 33 70.3V67.6C33 66.3 31.8 65.3 30.5 65.3S28 66.4 28 67.7V70.3C24 70.2 20.3 70.1 18.3 70 13.3 69.7 12.3 72.5 15 73.7 17.8 74.9 24 75.6 28 76.1V77.2C28 78.5 29.2 79.5 30.5 79.5S33 78.4 33 77.2V76.4C42 76.8 49.9 76.7 49.9 76.7 54.4 76.7 62 76.9 68 76.5V77.2C68 78.5 69.2 79.5 70.5 79.5S73 78.4 73 77.2V76.2C78 75.8 81.9 75 84.8 73.8 87.6 72.5 86.6 69.7 81.6 70"></path><path fill="none" d="M75.8 63.2C79.1 63.2 81.8 60.5 81.8 57.2S79.1 51.2 75.8 51.2 69.8 53.9 69.8 57.2 72.5 63.2 75.8 63.2"></path><path fill="none" d="M25.4 63.2C28.7 63.2 31.4 60.5 31.4 57.2S28.7 51.2 25.4 51.2 19.4 53.9 19.4 57.2 22 63.2 25.4 63.2"></path><path d="M86.1 69.1S86.2 69.1 86.1 69.1L85.4 35.4C76.4 36.1 61.4 55.4 55 63.7 51.2 68.5 50.9 69 50.3 69 49.6 69 49.2 68.6 45 63.5 38.2 55.1 24.1 36.5 15.7 35.9L15 69C11.6 69.9 11.2 74.1 13.7 76.1 22.1 82.9 50.4 81.8 50.4 81.8 59.6 81.8 78.4 82.9 86.9 76.1 89.1 74.2 88.9 70.4 86.1 69.1M79.3 43.1C80.5 43.1 81.4 44 81.4 45.2S80.5 47.3 79.3 47.3 77.2 46.4 77.2 45.2 78.1 43.1 79.3 43.1M75.8 51.2C79.1 51.2 81.8 53.9 81.8 57.2S79.1 63.2 75.8 63.2 69.8 60.5 69.8 57.2 72.5 51.2 75.8 51.2M21.4 43.1C22.6 43.1 23.5 44 23.5 45.2S22.6 47.3 21.4 47.3 19.3 46.4 19.3 45.2 20.3 43.1 21.4 43.1M25.4 51.2C28.7 51.2 31.4 53.9 31.4 57.2S28.7 63.2 25.4 63.2 19.4 60.5 19.4 57.2 22 51.2 25.4 51.2M84.9 73.7C82 75 78 75.8 73 76.2V77.2C73 78.5 71.8 79.5 70.5 79.5S68 78.5 68 77.2V76.5C62 76.8 54.4 76.7 49.9 76.7 49.9 76.7 42 76.9 33 76.4V77.2C33 78.5 31.8 79.5 30.5 79.5S28 78.5 28 77.2V76.1C24 75.7 17.9 74.9 15.1 73.7S13.2 69.7 18.2 70C20.2 70.1 24 70.2 28 70.3V67.7C28 66.4 29.2 65.4 30.5 65.4S33 66.5 33 67.7V70.4C44 70.5 58 70.5 68 70.4V67.8C68 66.5 69.2 65.5 70.5 65.5S73 66.6 73 67.8V70.4C77 70.3 79.8 70.3 81.6 70.1 86.6 69.7 87.7 72.5 84.9 73.7" fill="#000000" data-fill-palette-color="accent"></path></g></svg></g></svg></g><g></g></svg></g></svg></g></svg></g></svg></g><defs></defs></svg><rect width="512" height="320" fill="none" stroke="none" visibility="hidden"></rect></g></svg></g></svg>